<?xml version="1.0" encoding="utf-8"?>
<!-- Generator: Adobe Illustrator 26.0.1, SVG Export Plug-In . SVG Version: 6.00 Build 0)  -->
<svg version="1.1" id="Layer_1" xmlns="http://www.w3.org/2000/svg" xmlns:xlink="http://www.w3.org/1999/xlink" x="0px" y="0px"
	 viewBox="0 0 1126 195" style="enable-background:new 0 0 1126 195;" xml:space="preserve">
<style type="text/css">
	.st0{fill:#5AF7DC;}
	.st1{enable-background:new    ;}
	.st2{fill:#FFFFFF;}
</style>
<polygon class="st0" points="263.3,61.4 225.9,61.4 225.9,33.3 275.4,33.3 286.7,7 193,7 193,133.2 225.9,133.2 225.9,87.6 
	252,87.6 "/>
<polygon class="st0" points="437.9,7 438,83 380.6,7 351.6,7 351.6,45 382.4,118.4 382.4,57.8 439.7,133.2 468.5,133.2 468.5,7 "/>
<polygon class="st0" points="546.8,133.2 546.8,34.2 584.6,34.2 584.6,7 476.4,7 476.4,34.2 513.9,34.2 513.9,133.2 "/>
<polygon class="st0" points="693.5,133.2 693.5,106.9 625.1,106.9 625.1,83.1 675.3,83 675.3,56.9 625.1,56.9 625.1,33.3 
	691.7,33.3 691.7,7 592.2,7 592.2,133.2 "/>
<polygon class="st0" points="800.3,133.2 800.3,106.9 731.9,106.9 731.9,83.1 782,83 782,56.9 731.9,56.9 731.9,33.3 798.5,33.3 
	798.5,7 699,7 699,133.2 "/>
<polygon class="st0" points="838.7,133.2 865,94.1 891.8,133.2 931.3,133.2 886.1,67.3 927.7,7 888.8,7 865,42.8 841.4,7 803.1,7 
	845,68.9 800.2,133.2 "/>
<path class="st0" d="M328.1,7h-33.8l-54.2,126.2h33.8l8.8-22.3h54.5l8.6,22.3H381L328.1,7z M292.7,85.7l17.6-45l17.3,45H292.7z"/>
<g class="st1">
	<path class="st2" d="M191.2,161.5h18v4.1h-13.3v6.1h11.9v4.1h-11.9v6.2h13.7v4.1h-18.4V161.5z"/>
	<path class="st2" d="M222.5,161.5h5l7.2,19.3l7.3-19.3h4.8l-9.8,24.5h-4.9L222.5,161.5z"/>
	<path class="st2" d="M261.2,161.5h18v4.1h-13.3v6.1h11.9v4.1h-11.9v6.2h13.7v4.1h-18.4V161.5z"/>
	<path class="st2" d="M310.8,186l-4.2-7.2c-0.2,0-0.5,0-0.9,0h-5.5v7.2h-4.7v-24.5h10.2c3.2,0,5.6,0.7,7.4,2.2
		c1.7,1.5,2.6,3.5,2.6,6.2c0,1.9-0.4,3.5-1.2,4.9c-0.8,1.4-2,2.4-3.6,3l5.4,8.1H310.8z M300.2,174.7h5.5c1.8,0,3.1-0.4,4.1-1.2
		c0.9-0.8,1.4-1.9,1.4-3.4c0-1.5-0.5-2.6-1.4-3.4c-0.9-0.7-2.3-1.1-4.1-1.1h-5.5V174.7z"/>
	<path class="st2" d="M351.4,161.5l-8.9,16.5v8h-4.7v-7.8l-9.1-16.7h4.8l6.7,11.5l6.6-11.5H351.4z"/>
	<path class="st2" d="M402.1,163.1c1.9,1,3.5,2.5,4.6,4.4c1.1,1.9,1.6,4,1.6,6.3c0,2.4-0.6,4.5-1.7,6.3c-1.1,1.9-2.6,3.3-4.6,4.4
		s-4.2,1.6-6.7,1.6h-10v-24.5h10.2C397.9,161.5,400.1,162,402.1,163.1z M399.6,180.8c1.2-0.7,2.1-1.6,2.8-2.9c0.7-1.2,1-2.6,1-4.2
		s-0.3-3-1-4.2c-0.7-1.2-1.7-2.2-2.9-2.9c-1.2-0.7-2.6-1-4.1-1H390v16.2h5.6C397.1,181.9,398.4,181.5,399.6,180.8z"/>
	<path class="st2" d="M441,186l-2.2-5.2h-12l-2.2,5.2h-4.9l10.7-24.5h4.9l10.6,24.5H441z M428.6,176.8h8.6l-4.3-10.3L428.6,176.8z"
		/>
	<path class="st2" d="M478.1,161.5l-8.9,16.5v8h-4.7v-7.8l-9.1-16.7h4.8l6.7,11.5l6.6-11.5H478.1z"/>
	<path class="st2" d="M512,161.5h16.9l0,4.1h-12.2v6.6h11.1v4.1h-11.1v9.7H512V161.5z"/>
	<path class="st2" d="M561.4,162.8c2,1.1,3.6,2.6,4.7,4.5c1.1,1.9,1.7,4,1.7,6.4c0,2.3-0.6,4.5-1.7,6.4s-2.7,3.4-4.7,4.6
		s-4.2,1.7-6.6,1.7c-2.4,0-4.6-0.6-6.6-1.7c-2-1.1-3.6-2.6-4.7-4.6c-1.1-1.9-1.7-4.1-1.7-6.4c0-2.3,0.6-4.5,1.7-6.4
		c1.1-1.9,2.7-3.4,4.7-4.5c2-1.1,4.2-1.6,6.6-1.6C557.2,161.2,559.4,161.7,561.4,162.8z M550.6,166.5c-1.3,0.7-2.3,1.7-3,3
		c-0.7,1.3-1.1,2.7-1.1,4.2s0.4,3,1.1,4.2c0.8,1.3,1.8,2.3,3,3c1.3,0.7,2.7,1.1,4.1,1.1c1.5,0,2.8-0.4,4.1-1.1c1.3-0.7,2.3-1.8,3-3
		c0.7-1.3,1.1-2.7,1.1-4.2s-0.4-2.9-1.1-4.2c-0.7-1.3-1.7-2.3-3-3c-1.3-0.7-2.6-1.1-4.1-1.1C553.3,165.4,551.9,165.8,550.6,166.5z"
		/>
	<path class="st2" d="M600,162.8c2,1.1,3.6,2.6,4.7,4.5c1.1,1.9,1.7,4,1.7,6.4c0,2.3-0.6,4.5-1.7,6.4c-1.1,1.9-2.7,3.4-4.7,4.6
		s-4.2,1.7-6.6,1.7c-2.4,0-4.6-0.6-6.6-1.7s-3.6-2.6-4.7-4.6s-1.7-4.1-1.7-6.4c0-2.3,0.6-4.5,1.7-6.4c1.1-1.9,2.7-3.4,4.7-4.5
		s4.2-1.6,6.6-1.6C595.8,161.2,598,161.7,600,162.8z M589.3,166.5c-1.3,0.7-2.3,1.7-3,3c-0.7,1.3-1.1,2.7-1.1,4.2s0.4,3,1.1,4.2
		c0.8,1.3,1.8,2.3,3,3s2.7,1.1,4.1,1.1c1.5,0,2.8-0.4,4.1-1.1c1.3-0.7,2.3-1.8,3-3s1.1-2.7,1.1-4.2s-0.4-2.9-1.1-4.2
		c-0.7-1.3-1.7-2.3-3-3c-1.3-0.7-2.6-1.1-4.1-1.1C591.9,165.4,590.6,165.8,589.3,166.5z"/>
	<path class="st2" d="M618.4,161.5h20v4.2h-7.6V186h-4.7v-20.3h-7.6V161.5z"/>
	<path class="st2" d="M670,163.1c1.5,1.1,2.3,2.6,2.3,4.5c0,1.4-0.4,2.5-1.1,3.5c-0.8,1-1.8,1.6-3.1,1.9c1.6,0.3,2.9,1,3.8,2.1
		s1.4,2.5,1.4,4.1c0,2.1-0.8,3.8-2.4,5c-1.6,1.2-3.8,1.8-6.6,1.8h-11.2v-24.5h10.9C666.4,161.5,668.5,162,670,163.1z M666.4,170.7
		c0.7-0.5,1-1.3,1-2.2c0-0.9-0.3-1.7-1-2.2c-0.7-0.5-1.6-0.8-2.9-0.7h-6v6h6C664.8,171.5,665.7,171.2,666.4,170.7z M667,181.1
		c0.8-0.6,1.3-1.4,1.3-2.4c0-1-0.4-1.8-1.3-2.4c-0.8-0.6-2-0.8-3.5-0.8h-6v6.5h6C665,182,666.2,181.7,667,181.1z"/>
	<path class="st2" d="M707,186l-2.2-5.2h-12l-2.2,5.2h-4.9l10.7-24.5h4.9l10.6,24.5H707z M694.6,176.8h8.6l-4.3-10.3L694.6,176.8z"
		/>
	<path class="st2" d="M726.2,161.5h4.7v20.3h10.6v4.2h-15.3V161.5z"/>
	<path class="st2" d="M756.3,161.5h4.7v20.3h10.6v4.2h-15.3V161.5z"/>
	<path class="st2" d="M823.3,163.7c1.7,1.5,2.5,3.5,2.5,6.2c0,2.8-0.8,5-2.5,6.5c-1.7,1.6-4.1,2.3-7.2,2.3h-5.4v7.2h-4.7v-24.5h10
		C819.3,161.5,821.6,162.2,823.3,163.7z M820,173.5c0.9-0.8,1.4-1.9,1.4-3.4c0-1.5-0.5-2.6-1.4-3.4c-0.9-0.7-2.3-1.1-4.1-1.1h-5.1
		v9.1h5.1C817.7,174.7,819.1,174.3,820,173.5z"/>
	<path class="st2" d="M840.9,161.5h4.7v20.3h10.6v4.2h-15.3V161.5z"/>
	<path class="st2" d="M889.3,186l-2.2-5.2h-12L873,186h-4.9l10.7-24.5h4.9l10.6,24.5H889.3z M876.9,176.8h8.6l-4.3-10.3L876.9,176.8
		z"/>
	<path class="st2" d="M926.4,161.5l-8.9,16.5v8h-4.7v-7.8l-9.1-16.7h4.8l6.7,11.5l6.6-11.5H926.4z"/>
</g>
</svg>
